<?xml version="1.0" encoding="utf-8"?>
<!-- Generator: Adobe Illustrator 27.5.0, SVG Export Plug-In . SVG Version: 6.00 Build 0)  -->
<svg version="1.1" xmlns="http://www.w3.org/2000/svg" xmlns:xlink="http://www.w3.org/1999/xlink" x="0px" y="0px"
	 viewBox="0 0 841.89 841.89" style="enable-background:new 0 0 841.89 841.89;" xml:space="preserve">
<g id="bg">
</g>
<g id="Layer_1">
	<g>
		<g>
			<path style="opacity:0.27;fill:#231F20;" d="M588.221,651c8.405-6.247-24.057-20.578,3.5-18c37.051,3.468,137.433,8.896,126.5,45
				c-6.822,22.537-59.886,54.288-141.488,34.239c-56.914-13.982-64.384-44.144-46.512-48.239
				C561.988,656.72,567.41,666.473,588.221,651z"/>
			<path style="fill:#E5B28C;" d="M544.142,378.774c0,0-2.56-9.397-10.389-13.079c-6.19-2.918-19.199-8.695-19.199-8.695
				s-3.337-0.024-0.46,4.012c1.982,2.776,4.006,6.978,4.006,6.978s2.367,4.931-3.312,4.809c-5.683-0.119-15.868-6.336-15.868-6.336
				l-7.028-4.021c0,0-3.347,0.518-2.58,4.498c0.96,5.028,8.034,15.536,13.077,18.256c2.202,1.186,4.938,1.593,10.156,2.882
				c5.205,1.29,26.982,4.113,26.982,4.113s2.857-0.62,4.199-6.14C544.815,381.61,544.142,378.774,544.142,378.774z"/>
			<g>
				<path style="fill:#545454;" d="M602.224,663.571c0,0-2.86,4.575-9.905,6.042c-4.352,0.902-18.688,2.688-18.688,2.688
					c-7.114,0.875-15.742,3.141-17.103,10.135c0,0-0.492,3.516-0.236,4.648c0.891,3.908,4.69,5.452,9.314,7.098
					c0,0,8.398,2.986,15.595,4.314c9.298,1.712,14.436,1.442,21.14,0.417c0,0,8.462-1.442,11.875-1.456
					c3.784-0.017,3.147,2.742,3.584,6.29l12.036,3.145c12.036,1.54,20.005-9.296,19.676-12.025l-3.253-26.471L602.224,663.571z"/>
				<g>
					<path style="fill:#383736;" d="M609.999,696.903c-3.241,0.328-12.609,2.014-22.188,0.911
						c-9.052-1.041-23.607-6.341-23.607-6.341c-4.092-1.456-7.581-3.96-7.875-6.309c-0.06,0.901-0.094,1.823,0.019,2.313
						c0.877,3.915,4.687,5.452,9.302,7.096c0,0,8.404,2.989,15.595,4.316c9.301,1.714,14.442,1.435,21.146,0.419
						c0,0,9.712-1.384,10.068-1.435c2.237-0.34,4.448,0.255,4.492,0.655C616.871,698.337,615.975,696.295,609.999,696.903z"/>
					<path style="fill:#383736;" d="M629.227,702.2l-11.932-3.111c0.13,1.17,0.418,3.923,0.554,5.056l12.037,3.148
						c12.04,1.532,20.001-9.304,19.668-12.028l-0.651-5.084C649.238,692.91,641.269,703.741,629.227,702.2z"/>
				</g>
			</g>
			<g>
				<path style="fill:#545454;" d="M623.196,612.834c0,0-1.047,7.539-8.349,8.17c-4.497,0.394-11,0.576-11,0.576
					c-7.702-1.433-17.347-1.297-19.125,4.442c0,0-0.815,2.238-0.692,3.464c0.403,4.225-1.095,0.69,4.681,5.848
					c0,0,10.976,8.27,17.75,11.459c8.528,4.014,12.93,4.158,15.682,3.868c0,0,5.514-1.087,8.959-0.665
					c3.82,0.469,2.84,5.293,2.84,9.08l11.76,4.855c11.966,3.172,21.348-7.193,21.348-10.098v-30.253L623.196,612.834z"/>
				<g>
					<path style="fill:#383736;" d="M626.91,648.873c-3.303-0.073-7.131-0.629-17.012-3.369
						c-8.252-2.291-20.361-10.744-20.361-10.744c-2.887-2.15-5.237-4.782-5.231-7.285c-0.182,0.936-0.241,1.904-0.276,2.435
						c-0.269,3.85,3.103,5.961,5.882,7.897c0,0,9.45,7.096,16.549,9.415c9.174,3.008,10.59,2.726,14.721,2.868
						c0,0,5.239,0.244,8.704,0.398c1.56,0.069,3.72,0.985,3.72,1.41C633.531,651.688,633.023,649.001,626.91,648.873z"/>
					<path style="fill:#383736;" d="M645.701,660.555l-11.658-4.811c-0.013,1.242-0.102,2.546-0.102,3.757l11.76,4.856
						c11.966,3.165,21.348-7.193,21.348-10.106v-3.796C667.049,653.361,657.667,663.72,645.701,660.555z"/>
				</g>
			</g>
			<path style="fill:#141413;" d="M620.539,397.157l4.668,235.259c0.225,5.115,2.42,5.51,10.983,6.703
				c10.563,1.477,18.129-0.929,18.129-0.929c6.85-2.216,14.154-7.366,14.665-13.848l7.525-221.369L620.539,397.157z"/>
			<path style="fill:#383736;" d="M592.614,431.393l6.774,228.94c0.225,5.108,1.593,12.469,10.166,13.667
				c10.556,1.476,16.508,1.211,21.667,1c8.167-0.334,15.238,0.742,15.749-5.75l-3.026-233.76L592.614,431.393z"/>
			<path style="fill:#2C3133;" d="M641.153,272.935c0,0,40.384-19.343,32.508,56.829c-0.547,5.241,3.526,42.675-3.943,55.071
				c0,0-14.341,21.536-35.247,17.775c-15.579-2.799-96-7.611-96-7.611s-5.249-5.833-4.887-15.186
				c0.271-6.99,6.637-12.564,6.637-12.564l91.125-8.85L641.153,272.935z"/>
			<g>
				<polygon style="fill:#995710;" points="621.461,327.902 609.438,320.674 599.878,325.885 611.62,333.108 				"/>
			</g>
			<path style="fill:#F7CBAD;" d="M581.721,191.348l-22.065,7.847l22.534,56.212c6.142,16.229,13.894,16.569,18.92,15.056
				c10.438-3.154,20.163-12.605,24.903-17.869c9.196-10.178,2.946-29.432,2.542-31.038l-8.369-39.625L581.721,191.348z"/>
			<path style="fill:#F7CBAD;" d="M648.929,266.77c0,0-9.232-9.458-15.371-23.602c-2.676-6.169-0.829-16.126-0.829-16.126
				l-29.744,9.063c0,0,4.394,19.817,6.574,26.368c1.357,4.076,7.578,16.171,7.578,16.171c0.334,4.975-23.576,41.275-22.537,56.728
				l55.88-22.2C650.036,306.597,648.929,266.77,648.929,266.77z"/>
			<path style="fill:#B25F04;" d="M556.717,194.209c-10.672,12.806,9.74,34.152,11.231,35.152c0.314,0.212-6.426-14.52-2.048-15.467
				c5.203-1.135,18.297,13.653,21.021,19.866c0,0,1.851,0.429,1.413-2.599c-0.146-1.011-3.755-6.415-3.493-6.996
				c1.065-2.383,8.19,1.287,17.473,10.055c0,0,6.079,5.893,13.79,8.936c13.919,5.497,17.714,0.846,17.725,0.812
				c0.116-0.418,2.832-9.307,4.733-23.654c3.627-27.529-2.995-40.864-12.813-48.143c-2.949-2.186-17.854-13.061-43.699-1.032
				C573.085,175.301,556.717,194.209,556.717,194.209z"/>
			<g>
				<g>
					<g style="enable-background:new    ;">
						<g>
							<polygon style="fill:#7D6D2C;" points="474.972,377.29 484.962,373.607 485.478,373.602 475.486,377.29 							"/>
						</g>
						<g>
							<polygon style="fill:#C6AE46;" points="482.33,394.119 492.328,390.44 491.952,390.894 481.949,394.58 							"/>
						</g>
						<g>
							<polygon style="fill:#80702D;" points="474.215,365.648 484.209,361.971 484.714,362.275 474.721,365.948 							"/>
						</g>
						<g>
							<polygon style="fill:#E3C750;" points="489.527,402.333 499.53,398.654 499.357,399.416 489.367,403.106 							"/>
						</g>
						<g>
							<polygon style="fill:#9C8937;" points="476.801,356.275 486.795,352.585 487.22,353.121 477.229,356.81 							"/>
						</g>
						<g>
							<polygon style="fill:#DDC24E;" points="497.436,406.444 507.428,402.756 507.528,403.698 497.537,407.385 							"/>
						</g>
						<g>
							<polygon style="fill:#BDA643;" points="482.28,350.769 492.267,347.077 492.557,347.736 482.566,351.422 							"/>
						</g>
						<g>
							<polygon style="fill:#C5AC45;" points="504.672,405.733 514.662,402.043 515.017,402.98 505.022,406.664 							"/>
						</g>
						<g style="enable-background:new    ;">
							<defs>
								<path id="SVGID_1_" style="enable-background:new    ;" d="M514.106,403.371c-3.333,1.228-6.667,2.46-9.992,3.684
									c0.309-0.114,0.612-0.239,0.908-0.391l9.995-3.684C514.721,403.132,514.416,403.262,514.106,403.371z"/>
							</defs>
							<clipPath id="SVGID_00000051350578444143270240000014265114187629104808_">
								<use xlink:href="#SVGID_1_"  style="overflow:visible;"/>
							</clipPath>
							<g style="clip-path:url(#SVGID_00000051350578444143270240000014265114187629104808_);enable-background:new    ;">
								<path style="fill:#F9DA58;" d="M505.022,406.664l9.995-3.684c-0.296,0.151-0.601,0.281-0.911,0.391l-9.992,3.684
									C504.423,406.94,504.726,406.815,505.022,406.664L505.022,406.664z"/>
							</g>
						</g>
						<g>
							<polygon style="fill:#7D6D2C;" points="482.566,351.422 492.557,347.736 495.98,346.779 485.99,350.462 							"/>
						</g>
						<g>
							<polygon style="fill:#B19B3F;" points="507.617,403.602 517.613,399.916 514.662,402.043 504.672,405.733 							"/>
						</g>
						<g style="enable-background:new    ;">
							<defs>
								<path id="SVGID_00000086649775810669149300000010191173590651551135_" style="enable-background:new    ;" d="
									M485.828,349.794l9.99-3.687c1.234-0.122,2.537-0.037,3.875,0.263l-10,3.691
									C488.365,349.761,487.065,349.677,485.828,349.794z"/>
							</defs>
							<clipPath id="SVGID_00000110465181944136170800000008574805855781453488_">
								<use xlink:href="#SVGID_00000086649775810669149300000010191173590651551135_"  style="overflow:visible;"/>
							</clipPath>
							<g style="clip-path:url(#SVGID_00000110465181944136170800000008574805855781453488_);enable-background:new    ;">
								<path style="fill:#F9DA58;" d="M485.828,349.794l9.99-3.687c1.234-0.122,2.537-0.037,3.875,0.263l-10,3.691
									C488.365,349.761,487.065,349.677,485.828,349.794L485.828,349.794z"/>
							</g>
						</g>
						<g>
							<polygon style="fill:#D9BE4D;" points="489.693,350.061 499.693,346.37 499.802,347.048 489.809,350.731 							"/>
						</g>
						<g style="enable-background:new    ;">
							<defs>
								<path id="SVGID_00000132069548582954096970000015527689067863846057_" style="enable-background:new    ;" d="
									M510.531,401.08l9.994-3.682c-0.704,1.295-1.517,2.408-2.422,3.339l-9.997,3.682
									C509.023,403.5,509.837,402.375,510.531,401.08z"/>
							</defs>
							<clipPath id="SVGID_00000103258103136793893570000014751170995390621863_">
								<use xlink:href="#SVGID_00000132069548582954096970000015527689067863846057_"  style="overflow:visible;"/>
							</clipPath>
							<g style="clip-path:url(#SVGID_00000103258103136793893570000014751170995390621863_);enable-background:new    ;">
								<path style="fill:#F9DA58;" d="M510.531,401.08l9.994-3.682c-0.704,1.295-1.517,2.408-2.422,3.339l-9.997,3.682
									C509.023,403.5,509.837,402.375,510.531,401.08L510.531,401.08z"/>
							</g>
						</g>
						<g>
							<polygon style="fill:#A38F3A;" points="509.996,400.332 519.992,396.647 520.525,397.398 510.531,401.08 							"/>
						</g>
						<g>
							<polygon style="fill:#7D6D2C;" points="489.809,350.731 499.802,347.048 503.721,348.521 493.73,352.204 							"/>
						</g>
						<g>
							<polygon style="fill:#DDC24E;" points="511.623,396.174 521.617,392.489 519.992,396.647 509.996,400.332 							"/>
						</g>
						<g>
							<polygon style="fill:#E5C851;" points="497.783,354.247 507.789,350.564 507.704,351.18 497.706,354.863 							"/>
						</g>
						<g style="enable-background:new    ;">
							<defs>
								<path id="SVGID_00000126320267677774593820000017106106026496921255_" style="enable-background:new    ;" d="
									M493.748,351.565l10.004-3.682c1.325,0.692,2.682,1.582,4.037,2.681l-10.006,3.684
									C496.443,353.148,495.085,352.262,493.748,351.565z"/>
							</defs>
							<clipPath id="SVGID_00000058553573150177594470000006873833372463527329_">
								<use xlink:href="#SVGID_00000126320267677774593820000017106106026496921255_"  style="overflow:visible;"/>
							</clipPath>
							<g style="clip-path:url(#SVGID_00000058553573150177594470000006873833372463527329_);enable-background:new    ;">
								<path style="fill:#F9DA58;" d="M493.748,351.565l10.004-3.682c1.325,0.692,2.682,1.582,4.037,2.681l-10.006,3.684
									C496.443,353.148,495.085,352.262,493.748,351.565L493.748,351.565z"/>
							</g>
						</g>
						<g>
							<polygon style="fill:#85742F;" points="512.488,391.164 522.477,387.48 523.07,387.916 513.078,391.602 							"/>
						</g>
						<g style="enable-background:new    ;">
							<defs>
								<path id="SVGID_00000142133754257043187400000010806037852775685277_" style="enable-background:new    ;" d="
									M513.078,391.602l9.992-3.686c-0.078,0.929-0.185,1.847-0.334,2.739c-0.148,0.825-0.325,1.62-0.525,2.37l-9.992,3.682
									c0.203-0.748,0.378-1.537,0.517-2.372C512.891,393.442,513.001,392.528,513.078,391.602z"/>
							</defs>
							<clipPath id="SVGID_00000163773184394293916850000013250173640824479411_">
								<use xlink:href="#SVGID_00000142133754257043187400000010806037852775685277_"  style="overflow:visible;"/>
							</clipPath>
							<g style="clip-path:url(#SVGID_00000163773184394293916850000013250173640824479411_);enable-background:new    ;">
								<path style="fill:#F9DA58;" d="M513.078,391.602l9.992-3.686c-0.078,0.929-0.185,1.847-0.334,2.739
									c-0.148,0.825-0.325,1.62-0.525,2.37l-9.992,3.682c0.203-0.748,0.378-1.537,0.517-2.372
									C512.891,393.442,513.001,392.528,513.078,391.602L513.078,391.602z"/>
							</g>
						</g>
						<g>
							<polygon style="fill:#907E33;" points="497.706,354.863 507.704,351.18 511.44,354.816 501.444,358.501 							"/>
						</g>
						<g>
							<polygon style="fill:#E3C750;" points="512.519,385.707 522.514,382.022 522.477,387.48 512.488,391.164 							"/>
						</g>
						<g>
							<polygon style="fill:#D0B649;" points="505.18,362.652 515.178,358.971 514.896,359.405 504.898,363.091 							"/>
						</g>
						<g style="enable-background:new    ;">
							<defs>
								<path id="SVGID_00000064335303479395385890000015036463157669379988_" style="enable-background:new    ;" d="
									M501.67,358.011l9.99-3.687c1.256,1.426,2.429,2.984,3.517,4.647l-9.998,3.682
									C504.096,360.995,502.927,359.434,501.67,358.011z"/>
							</defs>
							<clipPath id="SVGID_00000022536426999137697420000000985647999947232654_">
								<use xlink:href="#SVGID_00000064335303479395385890000015036463157669379988_"  style="overflow:visible;"/>
							</clipPath>
							<g style="clip-path:url(#SVGID_00000022536426999137697420000000985647999947232654_);enable-background:new    ;">
								<path style="fill:#F9DA58;" d="M501.67,358.011l9.99-3.687c1.256,1.426,2.429,2.984,3.517,4.647l-9.998,3.682
									C504.096,360.995,502.927,359.434,501.67,358.011L501.67,358.011z"/>
							</g>
						</g>
						<g>
							<polygon style="fill:#B19B3F;" points="504.898,363.091 514.896,359.405 517.801,364.588 507.808,368.271 							"/>
						</g>
						<g>
							<polygon style="fill:#7D6D2C;" points="511.708,379.825 521.709,376.142 522.248,376.213 512.253,379.901 							"/>
						</g>
						<g style="enable-background:new    ;">
							<defs>
								<path id="SVGID_00000121997515573629700550000009842127479122323331_" style="enable-background:new    ;" d="
									M512.253,379.901l9.995-3.689c0.414,2.008,0.696,4.014,0.834,5.983l-9.991,3.687
									C512.951,383.908,512.674,381.907,512.253,379.901z"/>
							</defs>
							<clipPath id="SVGID_00000173148669690977698470000012088444553952762535_">
								<use xlink:href="#SVGID_00000121997515573629700550000009842127479122323331_"  style="overflow:visible;"/>
							</clipPath>
							<g style="clip-path:url(#SVGID_00000173148669690977698470000012088444553952762535_);enable-background:new    ;">
								<path style="fill:#F9DA58;" d="M512.253,379.901l9.995-3.689c0.414,2.008,0.696,4.014,0.834,5.983l-9.991,3.687
									C512.951,383.908,512.674,381.907,512.253,379.901L512.253,379.901z"/>
							</g>
						</g>
						<g>
							<polygon style="fill:#D0B649;" points="510.139,373.998 520.13,370.31 521.709,376.142 511.708,379.825 							"/>
						</g>
						<path style="fill:#D1B956;" d="M474.215,365.648l0.506,0.3l0.851-4.913l-0.459-0.478c0.439-1.598,1.011-3.02,1.689-4.282
							l0.429,0.535l2.337-3.228l-0.329-0.623c0.917-0.923,1.936-1.655,3.043-2.19l0.286,0.653l3.424-0.96l-0.162-0.668
							c1.236-0.117,2.537-0.033,3.865,0.268l0.115,0.67l3.922,1.473l0.017-0.64c1.337,0.697,2.695,1.584,4.035,2.683l-0.077,0.616
							l3.738,3.638l0.226-0.49c1.257,1.423,2.426,2.984,3.51,4.642l-0.281,0.438l2.909,5.18l0.405-0.237
							c0.905,1.864,1.706,3.815,2.383,5.804l-0.457,0.161l1.569,5.827l0.545,0.076c0.421,2.006,0.698,4.007,0.838,5.981
							l-0.571-0.176l-0.031,5.457l0.59,0.438c-0.077,0.927-0.188,1.841-0.343,2.733c-0.139,0.835-0.313,1.624-0.517,2.372
							l-0.596-0.533l-1.627,4.158l0.535,0.748c-0.694,1.295-1.508,2.42-2.425,3.339l-0.489-0.817l-2.945,2.132l0.35,0.931
							c-1.107,0.542-2.3,0.865-3.549,0.997l-0.281-0.961l-3.755-0.256l0.101,0.94c-1.323-0.3-2.688-0.805-4.07-1.534l-0.021-0.904
							l-3.918-2.613l-0.16,0.773c-1.352-1.126-2.652-2.396-3.872-3.795l0.235-0.683l-3.4-4.51l-0.381,0.461
							c-1.095-1.701-2.098-3.51-2.992-5.381l0.418-0.347l-2.284-5.637l-0.512,0.104c-0.66-1.988-1.2-4.012-1.607-6.029h0.515
							l-0.795-5.778l-0.533-0.226C474.042,369.366,474.053,367.476,474.215,365.648z"/>
						<g style="enable-background:new    ;">
							<defs>
								<path id="SVGID_00000010304040733081063790000011325519153888494780_" style="enable-background:new    ;" d="
									M508.213,368.033l9.995-3.686c0.904,1.867,1.704,3.812,2.379,5.799l-9.991,3.69
									C509.919,371.849,509.118,369.897,508.213,368.033z"/>
							</defs>
							<clipPath id="SVGID_00000160888922540893916890000015176951864847158434_">
								<use xlink:href="#SVGID_00000010304040733081063790000011325519153888494780_"  style="overflow:visible;"/>
							</clipPath>
							<g style="clip-path:url(#SVGID_00000160888922540893916890000015176951864847158434_);enable-background:new    ;">
								<path style="fill:#F9DA58;" d="M508.213,368.033l9.995-3.686c0.904,1.867,1.704,3.812,2.379,5.799l-9.991,3.69
									C509.919,371.849,509.118,369.897,508.213,368.033L508.213,368.033z"/>
							</g>
						</g>
					</g>
				</g>
				<path style="fill:#B19B3F;" d="M483.547,355.453c6.978-2.596,16.586,5.94,21.471,19.061c4.88,13.122,3.178,25.869-3.803,28.46
					c-6.977,2.599-16.591-5.93-21.476-19.054C474.867,370.798,476.565,358.048,483.547,355.453z"/>
				<path style="fill:#E2C756;" d="M502.605,402.273c5.792-3.693,6.952-15.554,2.412-27.76
					c-4.643-12.484-13.572-20.817-20.445-19.351c-5.787,3.696-6.943,15.561-2.404,27.759
					C486.809,395.413,495.742,403.742,502.605,402.273z"/>
				<g>
					<g>
						<polygon style="fill:#80702D;" points="480.366,369.344 482.559,368.547 484.347,370.002 482.162,370.81 						"/>
					</g>
					<g style="enable-background:new    ;">
						<defs>
							<path id="SVGID_00000181787959159786825010000015394177475427008697_" style="enable-background:new    ;" d="
								M490.798,381.861l-2.188,0.8c-0.672,0.257-1.468,0.037-2.251-0.599c-1.633-1.331-2.674-4.125-2.33-6.227l2.184-0.811
								c-0.342,2.103,0.7,4.898,2.338,6.235C489.326,381.894,490.122,382.105,490.798,381.861z"/>
						</defs>
						<clipPath id="SVGID_00000011724828382632890630000005784682917939111050_">
							<use xlink:href="#SVGID_00000181787959159786825010000015394177475427008697_"  style="overflow:visible;"/>
						</clipPath>
						<g style="clip-path:url(#SVGID_00000011724828382632890630000005784682917939111050_);enable-background:new    ;">
							<path style="fill:#F9DA58;" d="M484.029,375.836l2.184-0.811c-0.342,2.103,0.7,4.898,2.338,6.235
								c0.775,0.633,1.571,0.845,2.247,0.601l-2.188,0.8c-0.672,0.257-1.468,0.037-2.251-0.599
								C484.727,380.731,483.685,377.938,484.029,375.836L484.029,375.836z"/>
						</g>
					</g>
					<path style="fill:#F9DA58;" d="M484.677,372.065l-0.127,0.703l2.195-0.806l0.12-0.703c0.16-0.932,0.602-1.524,1.179-1.74
						l-2.187,0.803C485.283,370.537,484.837,371.135,484.677,372.065z"/>
					<g>
						<polygon style="fill:#80702D;" points="484.55,372.769 486.745,371.963 492.643,376.785 490.458,377.597 						"/>
					</g>
					<g style="enable-background:new    ;">
						<defs>
							<path id="SVGID_00000183233380895480097330000014891304254839546503_" style="enable-background:new    ;" d="
								M492.115,385.409l-2.193,0.811c0.02-0.007,0.034-0.015,0.057-0.017c1.206-0.476,2.05-1.713,2.366-3.569l2.189-0.807
								c-0.319,1.852-1.156,3.094-2.367,3.564C492.146,385.397,492.129,385.409,492.115,385.409z"/>
						</defs>
						<clipPath id="SVGID_00000125580495805879705700000016864066198179324593_">
							<use xlink:href="#SVGID_00000183233380895480097330000014891304254839546503_"  style="overflow:visible;"/>
						</clipPath>
						<g style="clip-path:url(#SVGID_00000125580495805879705700000016864066198179324593_);enable-background:new    ;">
							<path style="fill:#F9DA58;" d="M492.345,382.635l2.189-0.807c-0.319,1.852-1.156,3.094-2.367,3.564
								c-0.02,0.006-0.037,0.018-0.051,0.018l-2.193,0.811c0.02-0.007,0.034-0.015,0.057-0.017
								C491.185,385.728,492.028,384.491,492.345,382.635L492.345,382.635z"/>
						</g>
					</g>
					<g>
						<polygon style="fill:#B69F40;" points="488.387,367.803 490.573,366.991 490.043,370.051 487.856,370.855 						"/>
					</g>
					<g style="enable-background:new    ;">
						<defs>
							<path id="SVGID_00000031929794746108862790000011360929869869079962_" style="enable-background:new    ;" d="
								M484.549,366.774l2.186-0.806c1.1-0.404,2.469-0.098,3.839,1.022l-2.187,0.811
								C487.017,366.676,485.649,366.363,484.549,366.774z"/>
						</defs>
						<clipPath id="SVGID_00000163054143521969673250000014500634660670768048_">
							<use xlink:href="#SVGID_00000031929794746108862790000011360929869869079962_"  style="overflow:visible;"/>
						</clipPath>
						<g style="clip-path:url(#SVGID_00000163054143521969673250000014500634660670768048_);enable-background:new    ;">
							<path style="fill:#F9DA58;" d="M484.549,366.774l2.186-0.806c1.1-0.404,2.469-0.098,3.839,1.022l-2.187,0.811
								C487.017,366.676,485.649,366.363,484.549,366.774L484.549,366.774z"/>
						</g>
					</g>
					<g style="enable-background:new    ;">
						<defs>
							<path id="SVGID_00000002361944067003868930000006606935339374918295_" style="enable-background:new    ;" d="
								M499.176,388.845l-2.188,0.812c-0.575,0.209-1.283,0.047-1.998-0.538l2.186-0.81
								C497.896,388.899,498.602,389.053,499.176,388.845z"/>
						</defs>
						<clipPath id="SVGID_00000172429399413195846590000009014206921021441447_">
							<use xlink:href="#SVGID_00000002361944067003868930000006606935339374918295_"  style="overflow:visible;"/>
						</clipPath>
						<g style="clip-path:url(#SVGID_00000172429399413195846590000009014206921021441447_);enable-background:new    ;">
							<path style="fill:#F9DA58;" d="M494.99,389.118l2.186-0.81c0.72,0.591,1.426,0.744,2,0.536l-2.188,0.812
								C496.413,389.865,495.705,389.703,494.99,389.118L494.99,389.118z"/>
						</g>
					</g>
					<path style="fill:#F9DA58;" d="M493.025,378.508c-0.006,0.029-0.014,0.067-0.019,0.098l-0.156,0.944l2.187-0.806l0.162-0.945
						c0-0.03,0.007-0.063,0.014-0.097c0.132-0.788,0.508-1.321,1.047-1.536c0.009,0,0.018-0.008,0.018-0.008l-2.184,0.809
						c0,0-0.01,0.003-0.02,0.003C493.538,377.186,493.157,377.715,493.025,378.508z"/>
					<g>
						<polygon style="fill:#80702D;" points="492.851,379.55 495.037,378.744 500.969,383.592 498.781,384.395 						"/>
					</g>
					<path style="fill:#F9DA58;" d="M500.574,389.873c-0.314,1.772-1.156,2.911-2.27,3.326l2.186-0.813
						c1.114-0.397,1.96-1.556,2.265-3.324l0.074-0.445l-2.177,0.805L500.574,389.873z"/>
					<g>
						<polygon style="fill:#B69F40;" points="502.965,387.817 505.149,387.015 504.621,390.076 502.435,390.88 						"/>
					</g>
					<g>
						<polygon style="fill:#80702D;" points="501.17,386.357 503.362,385.554 505.149,387.015 502.965,387.817 						"/>
					</g>
					<g>
						<path style="fill:#DBC04D;" d="M490.607,376.681c0.292-1.668,1.034-2.814,2.131-3.249c1.12-0.424,2.431-0.091,3.724,0.971
							l0.554,0.449c2.962,2.426,4.848,7.49,4.199,11.285l-0.045,0.221l1.795,1.46l-0.529,3.063l-1.783-1.459l-0.078,0.452
							c-0.609,3.525-3.353,4.562-6.112,2.306l0.528-3.061c1.439,1.178,2.872,0.633,3.182-1.21l0.08-0.444l-5.907-4.829
							c-0.316,1.856-1.16,3.094-2.366,3.569c-1.235,0.474-2.703,0.094-4.141-1.083c-2.959-2.423-4.845-7.454-4.208-11.246
							l-1.786-1.464l0.523-3.067l1.796,1.466l0.118-0.704c0.606-3.536,3.352-4.563,6.106-2.303l-0.53,3.053
							c-1.433-1.177-2.862-0.634-3.18,1.21l-0.127,0.703l5.908,4.828L490.607,376.681z M496.49,377.911l-0.549-0.447
							c-0.654-0.534-1.314-0.706-1.867-0.494c-0.536,0.217-0.917,0.745-1.049,1.538c-0.006,0.029-0.014,0.067-0.019,0.098
							l-0.156,0.944l5.931,4.845l0.041-0.217C499.182,382.063,498.135,379.259,496.49,377.911L496.49,377.911z M489.952,380.684
							l-5.923-4.848c-0.344,2.102,0.697,4.896,2.33,6.227c0.797,0.651,1.607,0.859,2.294,0.593c0.655-0.267,1.124-0.943,1.293-1.924
							C489.95,380.715,489.952,380.699,489.952,380.684L489.952,380.684z"/>
					</g>
					<path style="fill:#F9DA58;" d="M496.462,374.402l0.554,0.449c2.962,2.426,4.848,7.49,4.199,11.285l-0.045,0.221l2.192-0.804
						l0.039-0.23c0.651-3.795-1.23-8.859-4.204-11.278l-0.551-0.452c-1.274-1.04-2.586-1.385-3.684-0.983l-2.182,0.813
						C493.882,373.015,495.189,373.356,496.462,374.402z"/>
				</g>
			</g>
			<g>
				<path style="fill:#EFCCAF;" d="M586.201,224.626c0,0,4.269-0.532,6.795,2.834c2.498,3.331,1.625,7.157,1.122,8.306
					c-1.329,3.066-3.306,4.161-3.306,4.161s-2.356-9.286-2.907-10.982C587.366,227.27,586.201,224.626,586.201,224.626z"/>
				<path style="fill:#F7DDCB;" d="M582.256,221.48c0,0-2.746,0.575,0.191,3.964c2.947,3.383,4.017,5.602,4.674,7.784
					c0.588,1.997,1.676,8.107,1.676,8.107s2.354,2.038,3.052-2.053c0.327-1.949-0.034-5.402-1.251-9.65
					C590.106,227.901,584.969,219.841,582.256,221.48z"/>
			</g>
			<path style="fill:#3D4244;" d="M594.302,301.22c-6.392,7.557-5.99,30.654-4.317,55.62l0.203,59.525
				c0.19,2.857-0.185,53.416,1.482,70.641c0.639,6.614,3.236,7.633,11.646,10.819c6.951,2.633,24.717,3.876,43.445,1.801
				c18.433-2.032,32.265-12.963,31.655-22.1l-2.409-168.906c-2.025-34.944-32.444-48.241-32.444-48.241l-24.922,17.705
				L594.302,301.22z"/>
			<path style="fill:#E5B28C;" d="M521.004,409.56c0,0-1.567-9.612-8.971-14.089c-5.854-3.546-16.408-11.169-16.408-11.169
				s-5.1,0.151-2.657,4.465c1.682,2.968,7.978,8.961,7.978,8.961s1.841,5.149-3.795,4.438c-5.639-0.71-15.722-9.582-15.722-9.582
				l-3.001-6.251c0,0-5.583,5.208-5.999,9.084c-0.546,5.09,1.647,12.955,6.379,16.185c2.067,1.41,4.746,2.099,9.803,3.924
				c5.043,1.825,26.407,6.898,26.407,6.898s2.906-0.319,4.815-5.669C521.379,412.451,521.004,409.56,521.004,409.56z"/>
			<path style="fill:#585E60;" d="M508.597,412.999c0.225,9.291,4.486,12.844,4.486,12.844s38.184,8.592,61.587,12.334
				c17,2.728,26.983-2.163,30.156-4.627c13.477-10.478,17.36-61.999,19.109-84.104c1.253-15.814,0.283-22.344-4.826-34.734
				c-5.953-14.462-17.059-19.742-26.836-10.158c-7.561,7.406-9.031,76.682-9.518,84.87c-0.353,5.819-4.938,16.75-10.774,16.428
				l-53.25-3.865c0,0-2.031-1.045-6.694,3.046C509.95,406.863,508.512,409.522,508.597,412.999z"/>
		</g>
		<g>
			<g>
				<g>
					<path style="fill:#2C3133;" d="M345.192,367.336c-1.563,1.059-25.094,14.355-53.431,19.324
						c-5.331,0.937-17.92-7.303-21.423-16.359c-0.454-1.171-18.055-35.355-19.591-38.829c-4.643-10.52,5.138-18.757,5.138-18.757
						s-15.295-31.777-2.506-35.286c11.684-3.22,19.667,14.894,20.84,20.737c1.883,9.424,21.221,52.126,25.796,50.676
						c10.992-3.486,39.189-12.817,39.189-12.817s7.971,1.351,10.566,9.89C351.402,351.273,351.915,362.811,345.192,367.336z"/>
					<path style="fill:#D6EAE9;" d="M337.156,338.171c0,0,3.705-2.914,6.525,2.436c2.827,5.355,4.561,13.345,3.604,19.183
						c-0.727,4.484-2.094,6.23-5.113,6.132c-3.114-0.098-7.84-8.565-8.029-14.314C333.946,345.864,334.439,339.052,337.156,338.171z
						"/>
					<path style="fill:#F2C8A5;" d="M335.896,340.216c0,0,9.321-7.339,11.589-8.374c5.742-2.63,14.021-0.873,20.056-3.989
						c2.717-1.404,5.159-3.512,5.159-3.512s5.164,3.409,1.366,7.501c-5.198,5.605-11.098,4.968-11.098,4.968
						s14.41,6.62,22.883,7.784c7.063,0.98,7.387-0.777,9.255,0.392c1.853,1.168,2.822,5.847,0.481,8.765
						c-4.452,5.57-13.338,9.352-23.272,7.89c-9.934-1.461-22.494-7.015-22.494-7.015l-13.734,1.459L335.896,340.216z"/>
					<path style="fill:#FFFFFF;" d="M339.106,337.298c0,0-3.406,1.163-2.34,11.585c0.63,6.104,1.814,12.177,2.779,13.929
						c1.756,3.16,4.017,2.944,3.947,3.016c-0.151,0.145-4.677,0.487-4.677,0.487s-7.556-3.223-7.007-17.755
						c0.307-8.101,2.629-9.703,2.629-9.703L339.106,337.298z"/>
				</g>
				<path style="opacity:0.27;fill:#231F20;" d="M359.911,675.246c-109.493,13.294-119.26,47.395-154.693,42.507
					c-15.984-2.207-28.852-17.863-28.852-36.17c0-27.602,41.596-46.088,105.349-48.312c27.389-0.962,69.013,9.083,80.598,17.235
					C377.196,660.977,370.62,673.948,359.911,675.246z"/>
				<path style="fill:#383736;" d="M193.398,656.345c0,0,0.147,22.48,0.131,22.964c-0.143,8.831,3.966,26.259,24.406,26.746
					c0.474,0.01,1.707,0.052,1.707,0.052s20.257,0.827,17.505-21.377c-0.859-6.941-5.283-30.282-5.283-30.282L193.398,656.345z"/>
				<path style="fill:#516572;" d="M193.398,651.403c0,0-0.453-0.532,0.131,24.676c0.219,8.824,4.357,22.771,24.382,23.539
					c0.802,0.029,3.907,0.09,5.555-0.075c8.268-0.826,15.058-5.944,13.301-18.565c-0.744-5.474-6.098-29.498-6.489-29.498
					L193.398,651.403z"/>
				<g>
					<path style="fill:#516572;" d="M312.435,631.898l7.78,5.586c0,0,31.213,11.003,33.377,11.814
						c2.441,0.925,7.796,2.468,7.599,6.813c-0.045,1.043,0.046,1.701-0.503,2.664c-2.041,3.527-6.637,5.406-10.977,6.585
						c-9.459,2.549-29.916,1.515-29.916,1.515c-5.948-0.139-16.027-2.086-17.193-2.867c0,0-5.208-0.988-5.94,0.846
						c-0.266,0.665,0.559,3.511,0.652,4.073l-13.065-3.866c-0.66-0.239-2.442-6.17-2.962-8.812l-1.483-17.614L312.435,631.898z"/>
					<g>
						<path style="fill:#383736;" d="M354.862,661.794c-2.382,1.438-5.869,2.387-9.367,3.098
							c-13.839,2.88-35.473,0.158-35.473,0.158c-2.144-0.31-10.315-1.477-10.315-1.477s-3.235,0.562-3.045,1.279
							c-0.036-0.362,0.029-0.032-0.116,0.039c-0.309,0.123,0.769,4.034,0.769,4.034l3.168-2.433c0,0,9.931,1.225,11.679,1.599
							c0,0,20.813,2.591,34.795-0.15c4.401-0.848,11.701-4.142,13.968-8.434c0.42-0.765,0.788-2.574,0.126-3.782
							C361.014,655.971,358.111,659.852,354.862,661.794z"/>
						<path style="fill:#383736;" d="M296.662,664.852l-14.352-4.8c0,0,1.632,5.169,1.81,5.059l13.101,3.864
							C297.11,668.548,296.814,665.965,296.662,664.852z"/>
					</g>
				</g>
				<path style="fill:#141413;" d="M276.919,436.239c0,0,27.732,94.623,32.038,120.597c2.541,15.233,10.984,74.104,10.984,74.104
					c1.611,7.407,2.826,8.828,0.843,11.563c-7.298,10.18-33.309,26.567-39.742,11.139c0,0-8.424-68.842-15.192-85.818
					c-10.697-26.755-41.457-121.783-41.457-121.783L276.919,436.239z"/>
				<path style="fill:#383736;" d="M246.387,449.404l-10.432,197.421l-0.491,16.006c-0.078,5.429-7.225,11.259-16.262,12.861
					c-11.149,1.922-17.266-1.06-17.266-1.06c-7.361-2.109-10.715-10.148-10.908-12.086l-1.951-81.841l-1.572-128.71L246.387,449.404
					z"/>
				<path style="fill:#D7DFE2;" d="M277.394,437.105c3.277-5.167-5.137-97.235-14.401-141.932
					c-3.082-14.882-15.917-20.248-18.679-22.412c-3.281,0.266-5.678,0.872-5.678,0.872l-20.933,6.234c0,0-10.348,6.53-16.852,11.949
					c3.323-0.025,23.205,141.742,34.881,151.998C246.57,453.352,271.343,446.666,277.394,437.105z"/>
				<path style="fill:#FF3636;" d="M250.685,318.625c-0.363-1.382-1.287-2.805-1.01-4.442l0.98-4.998l-6.881-10.173l-3.576,0.693
					l-2.006,11.518l4.892,3.915c1.1,1.011,2.561,3.055,2.5,4.503l4.352,51.417l8.732,13.777c0,0,3.142-10.021,3.011-13.722
					C261.217,358.095,250.685,318.625,250.685,318.625z"/>
				<path style="fill:#E8C5AC;" d="M246.925,291.508c-8.58,15.206-29.293,1.247-29.015-10.444l-1.585-35.954l29.69,8.545
					L246.925,291.508z"/>
				<path style="fill:#FFE8D9;" d="M225.427,224.571c7.317-0.3,8.427,6.702,8.427,6.702l0.554,14.721c0,0-0.206,3.216-2.951,3.863
					c-4.116,1.048-6.06-2.542-8.094-6.467c-0.101-0.239-2.724-6.052-2.855-6.4C218.249,232.05,218.53,224.827,225.427,224.571z"/>
				<g>
					<path style="fill:#3D4244;" d="M250.96,365.986c0,0-13.858-25.832-20.211-36.816c-14.008-24.315-17.46-46.314-17.46-46.314
						c-8.226,5.286-41.642,24.331-40.883,33.612l10.157,160.202c0.248,2.103,0.504,6.809,8.383,10.245
						c0,0,18.646,6.225,29.227,7.061c7.271,0.585,19.211,0.988,29.156-4.768L250.96,365.986z"/>
					<path style="fill:#3D4244;" d="M288.654,460.002l-11.216-120.673c-1.244-31.445-5.96-44.413-14.933-59.81
						c-3.354-5.685-8.633-6.614-14.116-6.563c4.66,6.305,9.431,15.561,11.949,35.896c2.475,19.94,0.827,53.33,0.827,53.33
						l9.737,120.27c8.901-1.286,15.284-10.64,15.284-10.64C289.725,469.319,288.833,464.255,288.654,460.002z"/>
				</g>
				<path style="fill:#E8C7B1;" d="M192.911,443.214l-0.406-4.927l11.4-15.153l16.498,3.662c0,0,15.268,3.25,18.088,12.609
					c5.153,17.166-7.855,16.789-7.855,16.789c-0.683-0.166-8.546-3.927-11.285-3.927c-1.363,0-13.353-1.306-13.353-1.306
					C198.675,450.153,194.676,448.739,192.911,443.214z"/>
				<path style="fill:#585E60;" d="M202.943,438.926c-4.189,6.3-12.373,7.62-12.373,7.62s-25.378-19.189-42.145-31.972
					c-16.743-12.809-17.898-22.685-9.373-38.898l26.436-48.317c0,0,8.434-21.409,21.727-20.735
					c15.202,0.743,23.658,21.93,16.11,35.909c-4.205,7.707-22.233,30.902-30.598,41.516c-2.811,3.532-2.33,6.546-0.524,7.867
					l32.976,31.484C205.178,423.399,209.366,429.265,202.943,438.926z"/>
				<path style="fill:#FFFFFF;" d="M241.939,295.897c-1.628,1.481-0.219,3.268,0.778,4.515l6.637,8.325
					c1.979,2.294,2.653-0.467,2.544-3.013l-0.341-18.367c-0.914-9.627-5.095-10.344-5.095-10.344s0.232,2.318,0.16,5.291
					C246.515,286.266,246.602,291.665,241.939,295.897z"/>
				<path style="fill:#7A797A;" d="M271.156,340.381c4.754-11.739,2.444-13.038,2.444-13.038l-7.807-7.69
					c0,0,4.339-3.723,6.421-4.588c2.045-0.906,0.124-3.779,0.124-3.779l-14.645-34.234l-3.4-3.573
					c-1.895-0.433-3.873-0.567-5.904-0.522c4.66,6.305,9.431,15.561,11.949,35.896c2.445,19.463,0.938,51.618,0.886,53.194
					C264.299,355.713,268.435,346.982,271.156,340.381z"/>
				<g>
					<path style="fill:#F2D3BD;" d="M242.731,202.906v0.041l-28.244,1.212l1.55,51.089c0.533,3.487,0.533,6.643,1.191,9.583
						c0.753,3.223,2.358,6.206,6.439,9.035c0,0,7.611,5.272,14.401,7.649c3.115,1.065,6.594,1.901,9.844,2.441
						c11.746,1.916,14.908-9.107,16.81-15.287c0.856-2.703,3.179-11.127,3.314-14.104l2.797-30.443l0.82-27.344L242.731,202.906z"/>
					<path style="fill:#844B17;" d="M265.694,191.297c8.12,4.142,12.107,9.984,8.655,22.441c-2.787,10.112-3.862,12.07-3.694,12.247
						c0.123,0.107,0.07-6.771,0.078-10.784c0.045-6.033-6.037-3.798-8.463-1.738c-3.539,3.011-11.991,8.692-12.215,8.86
						c-3.169,2.006-3.885,0.617-4.221-1.725c-0.056-0.507-0.185-3.648-0.185-3.648c-0.407,0.325-7.783,4.14-9.77,5.428
						c-5.633,3.607-6.415,8.609-5.966,13.081l0.132,4.428c0.113,2.315,0.618,4.961-1.673,4.783c-2.412-0.154-4.411-2.077-5.181-4.56
						c0,0-3.181-6.322-8.889-3.159c-4.792,2.7,0.285,11.039,0.656,11.673l2.391,16.691c-2.048,0.71-6.803-2.595-9.699-8.262
						c-5.313-10.471-8.682-18.014-10.193-21.217c-14.585-31.455,10.823-63.872,46.586-54.529
						C250.725,183.078,265.694,191.297,265.694,191.297z"/>
					<path style="fill:#F2D3BD;" d="M215.862,234.818c7.313-0.286,8.395,6.706,8.395,6.706l0.571,14.715c0,0-0.22,3.207-2.959,3.869
						c-4.114,1.04-6.061-2.539-8.099-6.479c-0.126-0.246-2.695-6.04-2.875-6.369C208.671,242.287,208.931,235.087,215.862,234.818z"
						/>
				</g>
				<path style="fill:#FFFFFF;" d="M217.503,272.466c0,0,0.205,5.897,1.373,8.625c5.708,13.403,20.955,15.226,20.955,15.226
					c1.96,0.608,1.934,1.551,1.82,4.83l-1.04,12.753c-0.122,3.145-1.768,2.924-3.09,1.706c0,0-13.2-10.101-16.933-13.53
					c-8.796-8.072-9.99-14.126-7.591-25.144C213.824,273.104,217.503,272.466,217.503,272.466z"/>
				<path style="fill:#7A797A;" d="M250.933,366.284l0.027-0.298c0,0-14.191-25.646-20.211-36.816
					c-13.343-24.752-18.636-47.393-18.636-47.393c-1.177,1.274-4.476,4.276-7.253,6.174l0.524,32.328c0,0-0.858,3.384,2.106,3.384
					c2.991,0,10.141,1.692,10.141,1.692l-5.48,10.174c0,0-2.122,2.112,9.716,10.997
					C230.722,353.173,244.533,362.182,250.933,366.284z"/>
			</g>
			<g>
				<g>
					<g style="enable-background:new    ;">
						<g>
							<polygon style="fill:#7D6D2C;" points="331.156,294.425 348.747,287.942 349.656,287.931 332.065,294.425 							"/>
						</g>
						<g>
							<polygon style="fill:#C6AE46;" points="344.114,324.056 361.718,317.576 361.054,318.378 343.441,324.869 							"/>
						</g>
						<g>
							<polygon style="fill:#80702D;" points="329.823,273.928 347.424,267.451 348.31,267.989 330.718,274.456 							"/>
						</g>
						<g>
							<polygon style="fill:#E3C750;" points="356.785,338.519 374.397,332.042 374.095,333.383 356.503,339.879 							"/>
						</g>
						<g>
							<polygon style="fill:#9C8937;" points="334.378,257.424 351.977,250.927 352.724,251.87 335.133,258.368 							"/>
						</g>
						<g>
							<polygon style="fill:#DDC24E;" points="370.713,345.757 388.304,339.262 388.48,340.922 370.889,347.412 							"/>
						</g>
						<g>
							<polygon style="fill:#BDA643;" points="344.025,247.73 361.61,241.231 362.12,242.39 344.529,248.88 							"/>
						</g>
						<g>
							<polygon style="fill:#C5AC45;" points="383.449,344.506 401.041,338.008 401.664,339.66 384.066,346.146 							"/>
						</g>
						<g style="enable-background:new    ;">
							<defs>
								<path id="SVGID_00000119811035432898375860000018432957983360929423_" style="enable-background:new    ;" d="
									M400.06,340.347c-5.869,2.162-11.739,4.33-17.596,6.485c0.547-0.202,1.08-0.421,1.602-0.686l17.598-6.485
									C401.141,339.926,400.607,340.151,400.06,340.347z"/>
							</defs>
							<clipPath id="SVGID_00000085948790486253331800000017897203726552123030_">
								<use xlink:href="#SVGID_00000119811035432898375860000018432957983360929423_"  style="overflow:visible;"/>
							</clipPath>
							<g style="clip-path:url(#SVGID_00000085948790486253331800000017897203726552123030_);enable-background:new    ;">
								<path style="fill:#F9DA58;" d="M384.066,346.146l17.598-6.485c-0.523,0.266-1.057,0.491-1.604,0.687l-17.596,6.485
									C383.012,346.63,383.545,346.411,384.066,346.146L384.066,346.146z"/>
							</g>
						</g>
						<g>
							<polygon style="fill:#7D6D2C;" points="344.529,248.88 362.12,242.39 368.148,240.704 350.557,247.189 							"/>
						</g>
						<g>
							<polygon style="fill:#B19B3F;" points="388.636,340.751 406.236,334.262 401.041,338.008 383.449,344.506 							"/>
						</g>
						<g style="enable-background:new    ;">
							<defs>
								<path id="SVGID_00000030470223694879252950000010417129926664365236_" style="enable-background:new    ;" d="
									M350.273,246.013l17.59-6.489c2.172-0.214,4.468-0.065,6.822,0.463l-17.608,6.498
									C354.739,245.956,352.449,245.808,350.273,246.013z"/>
							</defs>
							<clipPath id="SVGID_00000052077440462876645560000014093613498915865750_">
								<use xlink:href="#SVGID_00000030470223694879252950000010417129926664365236_"  style="overflow:visible;"/>
							</clipPath>
							<g style="clip-path:url(#SVGID_00000052077440462876645560000014093613498915865750_);enable-background:new    ;">
								<path style="fill:#F9DA58;" d="M350.273,246.013l17.59-6.489c2.172-0.214,4.468-0.065,6.822,0.463l-17.608,6.498
									C354.739,245.956,352.449,245.808,350.273,246.013L350.273,246.013z"/>
							</g>
						</g>
						<g>
							<polygon style="fill:#D9BE4D;" points="357.077,246.484 374.685,239.986 374.875,241.18 357.283,247.665 							"/>
						</g>
						<g style="enable-background:new    ;">
							<defs>
								<path id="SVGID_00000088821897800600339390000002708990973377068447_" style="enable-background:new    ;" d="
									M393.768,336.311l17.596-6.482c-1.24,2.282-2.67,4.24-4.266,5.88l-17.601,6.482
									C391.111,340.574,392.545,338.592,393.768,336.311z"/>
							</defs>
							<clipPath id="SVGID_00000092442631528057494090000000153965781851773096_">
								<use xlink:href="#SVGID_00000088821897800600339390000002708990973377068447_"  style="overflow:visible;"/>
							</clipPath>
							<g style="clip-path:url(#SVGID_00000092442631528057494090000000153965781851773096_);enable-background:new    ;">
								<path style="fill:#F9DA58;" d="M393.768,336.311l17.596-6.482c-1.24,2.282-2.67,4.24-4.266,5.88l-17.601,6.482
									C391.111,340.574,392.545,338.592,393.768,336.311L393.768,336.311z"/>
							</g>
						</g>
						<g>
							<polygon style="fill:#A38F3A;" points="392.823,334.995 410.427,328.505 411.363,329.829 393.768,336.311 							"/>
						</g>
						<g>
							<polygon style="fill:#7D6D2C;" points="357.283,247.665 374.875,241.18 381.775,243.771 364.185,250.257 							"/>
						</g>
						<g>
							<polygon style="fill:#DDC24E;" points="395.689,327.675 413.286,321.19 410.427,328.505 392.823,334.995 							"/>
						</g>
						<g>
							<polygon style="fill:#E5C851;" points="371.321,253.852 388.939,247.367 388.789,248.452 371.185,254.938 							"/>
						</g>
						<g style="enable-background:new    ;">
							<defs>
								<path id="SVGID_00000142170252629311760090000009890465489360548528_" style="enable-background:new    ;" d="
									M364.215,249.129l17.615-6.48c2.336,1.219,4.723,2.784,7.108,4.719l-17.617,6.485
									C368.961,251.918,366.57,250.357,364.215,249.129z"/>
							</defs>
							<clipPath id="SVGID_00000011741992520732013050000012117704203224601495_">
								<use xlink:href="#SVGID_00000142170252629311760090000009890465489360548528_"  style="overflow:visible;"/>
							</clipPath>
							<g style="clip-path:url(#SVGID_00000011741992520732013050000012117704203224601495_);enable-background:new    ;">
								<path style="fill:#F9DA58;" d="M364.215,249.129l17.615-6.48c2.336,1.219,4.723,2.784,7.108,4.719l-17.617,6.485
									C368.961,251.918,366.57,250.357,364.215,249.129L364.215,249.129z"/>
							</g>
						</g>
						<g>
							<polygon style="fill:#85742F;" points="397.213,318.853 414.799,312.367 415.843,313.134 398.252,319.625 							"/>
						</g>
						<g style="enable-background:new    ;">
							<defs>
								<path id="SVGID_00000180330929077086577890000015662927243971098553_" style="enable-background:new    ;" d="
									M398.252,319.625l17.591-6.491c-0.135,1.637-0.325,3.252-0.586,4.822c-0.263,1.455-0.572,2.854-0.927,4.173l-17.591,6.482
									c0.356-1.316,0.665-2.706,0.909-4.175C397.919,322.864,398.116,321.256,398.252,319.625z"/>
							</defs>
							<clipPath id="SVGID_00000137852716211069617590000007071654439070462647_">
								<use xlink:href="#SVGID_00000180330929077086577890000015662927243971098553_"  style="overflow:visible;"/>
							</clipPath>
							<g style="clip-path:url(#SVGID_00000137852716211069617590000007071654439070462647_);enable-background:new    ;">
								<path style="fill:#F9DA58;" d="M398.252,319.625l17.591-6.491c-0.135,1.637-0.325,3.252-0.586,4.822
									c-0.263,1.455-0.572,2.854-0.927,4.173l-17.591,6.482c0.356-1.316,0.665-2.706,0.909-4.175
									C397.919,322.864,398.116,321.256,398.252,319.625L398.252,319.625z"/>
							</g>
						</g>
						<g>
							<polygon style="fill:#907E33;" points="371.185,254.938 388.789,248.452 395.368,254.855 377.768,261.345 							"/>
						</g>
						<g>
							<polygon style="fill:#E3C750;" points="397.268,309.246 414.863,302.755 414.799,312.367 397.213,318.853 							"/>
						</g>
						<g>
							<polygon style="fill:#D0B649;" points="384.345,268.652 401.949,262.171 401.451,262.936 383.847,269.425 							"/>
						</g>
						<g style="enable-background:new    ;">
							<defs>
								<path id="SVGID_00000085969406049088217190000010309569266989021355_" style="enable-background:new    ;" d="
									M378.164,260.479l17.59-6.491c2.212,2.51,4.277,5.256,6.195,8.183l-17.604,6.481
									C382.435,265.736,380.377,262.983,378.164,260.479z"/>
							</defs>
							<clipPath id="SVGID_00000116945010782778868510000003771551206734576543_">
								<use xlink:href="#SVGID_00000085969406049088217190000010309569266989021355_"  style="overflow:visible;"/>
							</clipPath>
							<g style="clip-path:url(#SVGID_00000116945010782778868510000003771551206734576543_);enable-background:new    ;">
								<path style="fill:#F9DA58;" d="M378.164,260.479l17.59-6.491c2.212,2.51,4.277,5.256,6.195,8.183l-17.604,6.481
									C382.435,265.736,380.377,262.983,378.164,260.479L378.164,260.479z"/>
							</g>
						</g>
						<g>
							<polygon style="fill:#B19B3F;" points="383.847,269.425 401.451,262.936 406.565,272.06 388.974,278.544 							"/>
						</g>
						<g>
							<polygon style="fill:#7D6D2C;" points="395.838,298.888 413.447,292.401 414.397,292.527 396.8,299.023 							"/>
						</g>
						<g style="enable-background:new    ;">
							<defs>
								<path id="SVGID_00000124877597569005225350000016925407363825665185_" style="enable-background:new    ;" d="
									M396.8,299.023l17.597-6.496c0.728,3.537,1.226,7.067,1.469,10.537l-17.591,6.49
									C398.026,306.077,397.539,302.554,396.8,299.023z"/>
							</defs>
							<clipPath id="SVGID_00000098223032383088262790000006264936728427386028_">
								<use xlink:href="#SVGID_00000124877597569005225350000016925407363825665185_"  style="overflow:visible;"/>
							</clipPath>
							<g style="clip-path:url(#SVGID_00000098223032383088262790000006264936728427386028_);enable-background:new    ;">
								<path style="fill:#F9DA58;" d="M396.8,299.023l17.597-6.496c0.728,3.537,1.226,7.067,1.469,10.537l-17.591,6.49
									C398.026,306.077,397.539,302.554,396.8,299.023L396.8,299.023z"/>
							</g>
						</g>
						<g>
							<polygon style="fill:#D0B649;" points="393.077,288.63 410.668,282.135 413.447,292.401 395.838,298.888 							"/>
						</g>
						<path style="fill:#D1B956;" d="M329.823,273.928l0.895,0.528l1.496-8.649l-0.808-0.843c0.772-2.812,1.778-5.315,2.972-7.54
							l0.755,0.944l4.112-5.686l-0.576-1.097c1.614-1.625,3.409-2.915,5.356-3.855l0.504,1.149l6.027-1.69l-0.283-1.177
							c2.176-0.205,4.466-0.057,6.804,0.472l0.206,1.181l6.901,2.592l0.03-1.128c2.355,1.229,4.746,2.789,7.106,4.724l-0.136,1.085
							l6.582,6.407l0.396-0.865c2.213,2.504,4.271,5.257,6.181,8.173l-0.498,0.772l5.127,9.119l0.712-0.416
							c1.595,3.281,3.002,6.718,4.194,10.218l-0.803,0.284l2.761,10.258l0.962,0.136c0.739,3.53,1.227,7.054,1.475,10.531
							l-1.007-0.309l-0.055,9.606l1.039,0.772c-0.136,1.631-0.333,3.239-0.604,4.811c-0.244,1.469-0.553,2.858-0.909,4.175
							l-1.051-0.936l-2.865,7.32l0.944,1.316c-1.223,2.28-2.656,4.263-4.271,5.88l-0.861-1.44l-5.187,3.755l0.617,1.64
							c-1.951,0.952-4.049,1.521-6.246,1.753l-0.498-1.69l-6.609-0.451l0.176,1.655c-2.33-0.528-4.733-1.416-7.168-2.7l-0.035-1.594
							l-6.9-4.6l-0.282,1.36c-2.379-1.981-4.67-4.219-6.816-6.681l0.415-1.204l-5.987-7.938l-0.673,0.813
							c-1.927-2.998-3.693-6.179-5.266-9.475l0.736-0.612l-4.024-9.925l-0.899,0.184c-1.163-3.501-2.112-7.061-2.832-10.616h0.908
							l-1.4-10.173l-0.938-0.399C329.522,280.474,329.538,277.145,329.823,273.928z"/>
						<g style="enable-background:new    ;">
							<defs>
								<path id="SVGID_00000090259271833765501700000006209982641981919108_" style="enable-background:new    ;" d="
									M389.685,278.128l17.597-6.49c1.595,3.287,3.002,6.711,4.189,10.211l-17.591,6.497
									C392.688,284.846,391.28,281.409,389.685,278.128z"/>
							</defs>
							<clipPath id="SVGID_00000126306028393431337520000000330273033796095676_">
								<use xlink:href="#SVGID_00000090259271833765501700000006209982641981919108_"  style="overflow:visible;"/>
							</clipPath>
							<g style="clip-path:url(#SVGID_00000126306028393431337520000000330273033796095676_);enable-background:new    ;">
								<path style="fill:#F9DA58;" d="M389.685,278.128l17.597-6.49c1.595,3.287,3.002,6.711,4.189,10.211l-17.591,6.497
									C392.688,284.846,391.28,281.409,389.685,278.128L389.685,278.128z"/>
							</g>
						</g>
					</g>
				</g>
				<path style="fill:#B19B3F;" d="M346.256,255.977c12.286-4.569,29.203,10.46,37.804,33.561
					c8.593,23.102,5.596,45.547-6.698,50.108c-12.281,4.576-29.208-10.441-37.81-33.549
					C330.973,282.995,333.962,260.545,346.256,255.977z"/>
				<path style="fill:#E2C756;" d="M379.813,338.413c10.197-6.503,12.24-27.386,4.247-48.875
					c-8.175-21.982-23.897-36.654-35.999-34.072c-10.188,6.508-12.224,27.398-4.23,48.875
					C352,326.334,367.728,341.001,379.813,338.413z"/>
				<g>
					<g>
						<polygon style="fill:#80702D;" points="340.655,280.435 344.517,279.031 347.662,281.593 343.818,283.014 						"/>
					</g>
					<g style="enable-background:new    ;">
						<defs>
							<path id="SVGID_00000173850912586998313170000000325140790523991199_" style="enable-background:new    ;" d="
								M359.023,302.472l-3.852,1.411c-1.185,0.451-2.584,0.065-3.963-1.054c-2.877-2.346-4.709-7.264-4.106-10.965l3.846-1.426
								c-0.599,3.703,1.232,8.623,4.117,10.978C356.431,302.532,357.833,302.905,359.023,302.472z"/>
						</defs>
						<clipPath id="SVGID_00000044892013179394668010000001437006774494609322_">
							<use xlink:href="#SVGID_00000173850912586998313170000000325140790523991199_"  style="overflow:visible;"/>
						</clipPath>
						<g style="clip-path:url(#SVGID_00000044892013179394668010000001437006774494609322_);enable-background:new    ;">
							<path style="fill:#F9DA58;" d="M347.103,291.864l3.846-1.426c-0.599,3.703,1.232,8.623,4.117,10.978
								c1.364,1.115,2.767,1.488,3.957,1.055l-3.852,1.411c-1.185,0.451-2.584,0.065-3.963-1.054
								C348.332,300.483,346.5,295.565,347.103,291.864L347.103,291.864z"/>
						</g>
					</g>
					<path style="fill:#F9DA58;" d="M348.244,285.225l-0.223,1.241l3.865-1.42l0.213-1.24c0.279-1.636,1.057-2.681,2.076-3.061
						l-3.851,1.412C349.311,282.537,348.528,283.587,348.244,285.225z"/>
					<g>
						<polygon style="fill:#80702D;" points="348.022,286.466 351.887,285.046 362.271,293.537 358.424,294.966 						"/>
					</g>
					<g style="enable-background:new    ;">
						<defs>
							<path id="SVGID_00000144302985625545350760000008546712639349113766_" style="enable-background:new    ;" d="
								M361.343,308.721l-3.862,1.429c0.035-0.012,0.06-0.025,0.1-0.03c2.125-0.835,3.609-3.016,4.168-6.283l3.851-1.418
								c-0.563,3.257-2.036,5.446-4.169,6.272C361.395,308.7,361.366,308.721,361.343,308.721z"/>
						</defs>
						<clipPath id="SVGID_00000021109455806832409970000000943271995563358850_">
							<use xlink:href="#SVGID_00000144302985625545350760000008546712639349113766_"  style="overflow:visible;"/>
						</clipPath>
						<g style="clip-path:url(#SVGID_00000021109455806832409970000000943271995563358850_);enable-background:new    ;">
							<path style="fill:#F9DA58;" d="M361.748,303.836l3.851-1.418c-0.563,3.257-2.036,5.446-4.169,6.272
								c-0.035,0.01-0.063,0.03-0.087,0.03l-3.862,1.429c0.035-0.012,0.06-0.025,0.1-0.03
								C359.705,309.284,361.19,307.103,361.748,303.836L361.748,303.836z"/>
						</g>
					</g>
					<g>
						<polygon style="fill:#B69F40;" points="354.777,277.721 358.627,276.291 357.694,281.682 353.845,283.096 						"/>
					</g>
					<g style="enable-background:new    ;">
						<defs>
							<path id="SVGID_00000171685644488810122090000000451557106047830443_" style="enable-background:new    ;" d="
								M348.018,275.91l3.85-1.418c1.937-0.712,4.349-0.172,6.76,1.799l-3.85,1.43C352.366,275.737,349.957,275.186,348.018,275.91z
								"/>
						</defs>
						<clipPath id="SVGID_00000110434030054905861770000016587978827592236195_">
							<use xlink:href="#SVGID_00000171685644488810122090000000451557106047830443_"  style="overflow:visible;"/>
						</clipPath>
						<g style="clip-path:url(#SVGID_00000110434030054905861770000016587978827592236195_);enable-background:new    ;">
							<path style="fill:#F9DA58;" d="M348.018,275.91l3.85-1.418c1.937-0.712,4.349-0.172,6.76,1.799l-3.85,1.43
								C352.366,275.737,349.957,275.186,348.018,275.91L348.018,275.91z"/>
						</g>
					</g>
					<g style="enable-background:new    ;">
						<defs>
							<path id="SVGID_00000116946187135309320020000006763533681963269769_" style="enable-background:new    ;" d="
								M373.773,314.771l-3.852,1.429c-1.014,0.366-2.26,0.082-3.518-0.947l3.85-1.426
								C371.519,314.866,372.764,315.137,373.773,314.771z"/>
						</defs>
						<clipPath id="SVGID_00000120541955801527965840000013210999504273616538_">
							<use xlink:href="#SVGID_00000116946187135309320020000006763533681963269769_"  style="overflow:visible;"/>
						</clipPath>
						<g style="clip-path:url(#SVGID_00000120541955801527965840000013210999504273616538_);enable-background:new    ;">
							<path style="fill:#F9DA58;" d="M366.404,315.252l3.85-1.426c1.265,1.04,2.51,1.31,3.52,0.944l-3.852,1.429
								C368.908,316.565,367.662,316.281,366.404,315.252L366.404,315.252z"/>
						</g>
					</g>
					<path style="fill:#F9DA58;" d="M362.946,296.568c-0.013,0.054-0.025,0.119-0.035,0.173l-0.274,1.661l3.85-1.419l0.285-1.662
						c0-0.053,0.014-0.111,0.024-0.171c0.231-1.389,0.896-2.325,1.845-2.705c0.014,0,0.03-0.014,0.041-0.014l-3.855,1.426
						c0,0-0.018,0.005-0.036,0.005C363.847,294.242,363.178,295.174,362.946,296.568z"/>
					<g>
						<polygon style="fill:#80702D;" points="362.637,298.402 366.486,296.983 376.929,305.522 373.078,306.934 						"/>
					</g>
					<path style="fill:#F9DA58;" d="M376.234,316.579c-0.552,3.12-2.033,5.128-3.996,5.856l3.85-1.431
						c1.963-0.699,3.452-2.739,3.986-5.855l0.13-0.782l-3.831,1.415L376.234,316.579z"/>
					<g>
						<polygon style="fill:#B69F40;" points="380.447,312.96 384.292,311.548 383.361,316.936 379.512,318.354 						"/>
					</g>
					<g>
						<polygon style="fill:#80702D;" points="377.285,310.392 381.147,308.975 384.292,311.548 380.447,312.96 						"/>
					</g>
					<g>
						<path style="fill:#DBC04D;" d="M358.685,293.353c0.517-2.936,1.822-4.955,3.756-5.72c1.971-0.748,4.278-0.161,6.555,1.708
							l0.974,0.791c5.214,4.27,8.537,13.186,7.392,19.868l-0.076,0.391l3.162,2.568l-0.936,5.395l-3.139-2.571l-0.139,0.796
							c-1.072,6.206-5.902,8.033-10.762,4.06l0.932-5.387c2.533,2.074,5.056,1.113,5.602-2.131l0.141-0.782l-10.399-8.503
							c-0.558,3.268-2.043,5.448-4.168,6.283c-2.177,0.835-4.76,0.167-7.29-1.905c-5.209-4.266-8.531-13.124-7.409-19.803
							l-3.146-2.574l0.921-5.401l3.163,2.578l0.207-1.237c1.068-6.228,5.902-8.032,10.752-4.056l-0.933,5.375
							c-2.523-2.071-5.042-1.117-5.601,2.129l-0.223,1.241l10.402,8.5L358.685,293.353z M369.043,295.518l-0.966-0.787
							c-1.149-0.94-2.313-1.241-3.287-0.868c-0.943,0.38-1.612,1.311-1.844,2.706c-0.013,0.054-0.025,0.119-0.035,0.173
							l-0.274,1.661l10.441,8.531l0.071-0.38C373.785,302.829,371.94,297.891,369.043,295.518L369.043,295.518z M357.535,300.399
							l-10.432-8.535c-0.603,3.701,1.229,8.619,4.106,10.965c1.401,1.145,2.83,1.512,4.037,1.043
							c1.154-0.469,1.98-1.662,2.277-3.389C357.528,300.455,357.535,300.43,357.535,300.399L357.535,300.399z"/>
					</g>
					<path style="fill:#F9DA58;" d="M368.996,289.342l0.974,0.791c5.214,4.27,8.537,13.186,7.392,19.868l-0.076,0.391l3.861-1.417
						l0.066-0.403c1.147-6.682-2.166-15.598-7.4-19.858l-0.972-0.796c-2.241-1.831-4.55-2.439-6.485-1.73l-3.844,1.429
						C364.451,286.898,366.754,287.498,368.996,289.342z"/>
				</g>
			</g>
		</g>
	</g>
</g>
</svg>
