<?xml version="1.0" encoding="utf-8"?>
<!-- Generator: Adobe Illustrator 27.5.0, SVG Export Plug-In . SVG Version: 6.00 Build 0)  -->
<svg version="1.1" xmlns="http://www.w3.org/2000/svg" xmlns:xlink="http://www.w3.org/1999/xlink" x="0px" y="0px"
	 viewBox="0 0 500 500" style="enable-background:new 0 0 500 500;" xml:space="preserve">
<g id="Background_Simple">
	<g>
		<path style="fill:#92E3A9;" d="M325.669,40.087c-36.805,0.634-65.191,30.734-96.695,49.772
			c-47.586,28.756-108.693,34.592-148.879,73.018c-27.514,26.309-41.121,65.955-37.251,103.826s24.639,73.372,54.718,96.705
			c19.179,14.877,41.691,24.906,64.662,32.749c23.28,7.949,47.517,13.83,72.115,14.14c34.094,0.43,67.585-9.879,98.424-24.422
			c21.447-10.114,42.122-22.474,58.99-39.139c15.937-15.745,28.156-35.08,36.526-55.861c20.689-51.366,17.396-110.229-0.538-162.621
			C412.909,84.916,376.634,39.208,325.669,40.087z"/>
		<path style="opacity:0.7;fill:#FFFFFF;" d="M325.669,40.087c-36.805,0.634-65.191,30.734-96.695,49.772
			c-47.586,28.756-108.693,34.592-148.879,73.018c-27.514,26.309-41.121,65.955-37.251,103.826s24.639,73.372,54.718,96.705
			c19.179,14.877,41.691,24.906,64.662,32.749c23.28,7.949,47.517,13.83,72.115,14.14c34.094,0.43,67.585-9.879,98.424-24.422
			c21.447-10.114,42.122-22.474,58.99-39.139c15.937-15.745,28.156-35.08,36.526-55.861c20.689-51.366,17.396-110.229-0.538-162.621
			C412.909,84.916,376.634,39.208,325.669,40.087z"/>
	</g>
</g>
<g id="Wallet">
	<g>
		<path style="opacity:0.1;" d="M348.495,252.053c-0.264-7.533-0.753-15.566-1.564-23.878c-1.089-16.591-3.172-32.097-6.945-41.841
			c0-0.001,0-0.002-0.001-0.003c0,0,0,0,0,0c0-0.001-0.001-0.003-0.001-0.004l-0.017,0.001
			c-20.734-4.247-128.587,3.622-128.664,3.628l-0.678-2.997c-0.087-0.398-0.179-0.796-0.27-1.193l-0.472-2.089l-0.137-0.476
			c-0.698-2.818-1.485-5.615-2.411-8.382c-0.001,0-0.001,0-0.001,0l-0.001-0.002c0,0-81.76-7.3-108.88-0.22v0.004
			c-0.001,0-0.001,0-0.002,0c0.005,0.238,0.006,0.468,0.01,0.705l0.08,6.696c0.079,12.951-0.221,25.093,0.45,38.441l0.001,0.093
			c-0.004,0-0.007,0.001-0.011,0.001c-0.032,0-0.175,0.005-0.397,0.044c-2.198,0.285-3.966,1.797-4.661,3.789l0,0v0
			c-0.262,0.753-0.376,1.571-0.296,2.418l0.39,4.161c0.006,0.067,0.009,0.13,0.015,0.199c1,10.62,1.98,21.14,1.98,21.14l0.012,0.001
			c0.034,0.017,0.512,0.05,1.365,0.095l4.49,0.313c-9.557,0.887-19.973,13.504-19.539,24.352c0.435,10.856-9.998,31.287-7.39,43.023
			c2.036,9.163,12.285,23.889,17.303,35.079c-0.12,0.687-0.252,1.427-0.396,2.221l-22.39,44.948
			c1.497-2.201,14.973,56.497,77.7,44.068l44.609-72.678c-5.517,4.24,0,0,0,0c4.349-3.342,9.401-7.74,13.584-12.77
			c1.908-2.026,3.402-3.993,4.206-5.818c0.001-0.002,0.002-0.004,0.002-0.006c1.607-2.636,2.873-5.385,3.614-8.199
			c0.198-0.752,0.407-1.511,0.623-2.274c3.64-9.268,8.504-21.922,12.064-30.686c46.968-1.391,96.344-4.261,121.129-10.096
			c0.018-0.003,0.036-0.005,0.054-0.007C349.448,287.56,349.501,269.267,348.495,252.053z M107.118,293.12
			c0,0-0.592-3.816-0.694-8.171c0.548,2.878,1.141,5.751,1.774,8.629C107.842,293.416,107.484,293.255,107.118,293.12z"/>
		<g>
			<g>
				<path style="fill:#FFFFFF;" d="M64.361,399.455c0,0,20.081,59.361,82.808,46.932c0,0,13.916-65.343,25.581-74.962
					c7.523-6.204,24.135-17.326,27.682-25.372c3.616-8.205,17.811-46.282,20.573-50.885c2.762-4.603-29.921-57.528-29.921-57.528
					l-68.839,35.518l-38.305,68.042C83.939,341.199,76.592,385.129,64.361,399.455z"/>
				<path style="fill:none;stroke:#263238;stroke-linecap:round;stroke-linejoin:round;stroke-miterlimit:10;" d="M83.269,346.429
					c0,0-4.914,36.71-21.142,55.889"/>
				<path style="fill:none;stroke:#263238;stroke-linecap:round;stroke-linejoin:round;stroke-miterlimit:10;" d="M147.169,446.387
					c0,0,13.844-63.225,25.581-74.962c0,0,26.517-15.426,31.298-33.578c3.311-12.57,9.33-27.06,12.207-33.638"/>
				<path style="fill:none;stroke:#263238;stroke-linecap:round;stroke-linejoin:round;stroke-miterlimit:10;" d="M152.753,306.208
					c-1.027-0.637,16.045,13.042,16.708,31.639"/>
			</g>
			<path style="fill:#92E3A9;" d="M337.916,294.779c-55.28,13.04-233.32,11.29-233.32,11.29c-1.5-3.16-3.31-11.12-5.06-20.34
				c-3.5-18.51-6.77-42.1-6.77-42.1l-5.89-0.41c0,0-0.98-10.52-1.98-21.14c-0.99-10.62,4.96-10.61,4.96-10.61l-0.43-36.76
				l-0.11-9.18c27.12-7.08,108.88,0.22,108.88,0.22l2.55,8.86l1.42,6.28l128.68-3.63
				C342.666,207.769,337.916,294.779,337.916,294.779z"/>
			<g>
				<path style="fill:#263238;" d="M317.171,235.715l-84.299,4.046c-3.472,0.167-6.421-2.513-6.588-5.985l-0.822-17.124
					c-0.167-3.472,2.513-6.421,5.985-6.588l84.299-4.046c3.472-0.167,6.421,2.513,6.588,5.984l0.822,17.124
					C323.322,232.599,320.643,235.548,317.171,235.715z"/>
				<polygon style="fill:#263238;" points="323.543,246.54 323.806,249.389 226.629,253.153 226.548,250.594 				"/>
				<polygon style="fill:#263238;" points="324.025,256.451 324.106,259.01 226.935,262.604 226.854,260.045 				"/>
			</g>
			<path style="opacity:0.3;" d="M330.848,177.263c0,0,14.344,68.002,7.07,117.521c0,0-90.678,10.633-121.727,8.918l-1.274-16.549
				l2.598-0.404c0,0-12.545-94.456-15.351-105.862C202.164,180.887,310.149,173.006,330.848,177.263z"/>
			<path style="opacity:0.8;fill:#FFFFFF;" d="M211.929,286.907l1.086,12.511c0,0-91.407,3.997-99.44,1.096
				s0.426-7.556,21.684-9.224C156.516,289.621,211.929,286.907,211.929,286.907z"/>
			<ellipse style="fill:#263238;" cx="157.36" cy="226.292" rx="8.354" ry="7.557"/>
			<path style="fill:none;stroke:#263238;stroke-linecap:round;stroke-linejoin:round;stroke-miterlimit:10;" d="M92.765,243.624
				c2.102,21.998,5.633,41.232,11.828,62.448c38.769-0.331,77.531-0.767,116.284-2.006c38.757-1.24,78.595-3.853,117.04-9.282
				c0,0,6.885-60.759-7.07-117.521c-15.416-3.208-128.255,3.612-128.255,3.612"/>
			<path style="fill:none;stroke:#263238;stroke-linecap:round;stroke-linejoin:round;stroke-miterlimit:10;" d="M211.929,286.907
				l1.086,12.511l-86.965,2.006c-3.591,0.306-9.177,0.777-12.476-0.91c-1.507-0.771-2.587-2.655-1.878-4.191
				c0.639-1.383,2.328-1.869,3.821-2.176c10.643-2.187,21.5-3.112,32.335-3.912c23.189-1.713,46.419-2.876,69.663-3.486
				c-0.481,0.013-6.159-46.789-6.787-51.105c-2.461-16.906-4.802-33.872-7.838-50.685c-1.174-6.503-2.591-12.932-4.692-19.208
				c-35.839-2.561-73.264-4.934-108.884-0.218c0.325,15.872-0.26,30.037,0.544,45.934"/>
			<g>
				<g>
					<path style="fill:none;stroke:#263238;stroke-linecap:round;stroke-linejoin:round;" d="M103.264,301.356
						c0,0-0.295-0.77-0.384-1.955"/>
					<path style="fill:none;stroke:#263238;stroke-linecap:round;stroke-linejoin:round;stroke-dasharray:3.911,3.911;" d="
						M103.458,295.568c1.333-3.329,5.325-7.084,16.169-8.29c19.79-2.2,62.936-6.156,88.24-7.123"/>
					<path style="fill:none;stroke:#263238;stroke-linecap:round;stroke-linejoin:round;" d="M209.827,280.085
						c0.681-0.022,1.347-0.043,1.997-0.06c-0.091-0.662-0.182-1.324-0.273-1.986"/>
					<path style="fill:none;stroke:#263238;stroke-linecap:round;stroke-linejoin:round;stroke-dasharray:3.8819,3.8819;" d="
						M211.019,274.194c-4.552-32.738-9.591-65.227-15.364-97.777"/>
					<path style="fill:none;stroke:#263238;stroke-linecap:round;stroke-linejoin:round;" d="M195.316,174.506
						c-0.117-0.658-0.235-1.315-0.352-1.973c0,0-0.697-0.053-1.99-0.146"/>
					<path style="fill:none;stroke:#263238;stroke-linecap:round;stroke-linejoin:round;stroke-dasharray:4.0655,4.0655;" d="
						M188.921,172.107c-16.628-1.112-63.92-3.875-95.472-1.717"/>
					<path style="fill:none;stroke:#263238;stroke-linecap:round;stroke-linejoin:round;" d="M91.412,170.538
						c-0.672,0.052-1.335,0.106-1.991,0.162"/>
				</g>
			</g>
			<path style="fill:none;stroke:#263238;stroke-linecap:round;stroke-linejoin:round;stroke-miterlimit:10;" d="M86.881,243.218
				l-2.389-25.498c-0.303-3.229,2.13-6.065,5.368-6.252c14.698-0.85,52.72-2.846,67.314-1.678
				c7.008,0.561,14.606,2.806,18.021,9.508c2.813,5.521,3.239,13.803-1.498,18.342c-7.201,6.899-20.853,6.369-30.139,6.696
				C126.262,244.946,86.895,243.365,86.881,243.218z"/>
			<path style="fill:#263238;" d="M177.284,227.632c0.03-0.712,3.635,14.647-9.666,19.714c-13.301,5.067-74.853,3.476-74.853,3.476
				v-7.198c0,0,43.549,0.913,50.792,0.711C150.8,244.134,176.499,246.552,177.284,227.632z"/>
			<path style="fill:none;stroke:#263238;stroke-linecap:round;stroke-linejoin:round;stroke-miterlimit:10;" d="M164.49,313.432
				c0,0,10.876,6.372,14.954,18.335"/>
			
				<path style="fill:none;stroke:#263238;stroke-linecap:round;stroke-linejoin:round;stroke-miterlimit:10;stroke-dasharray:4,4;" d="
				M84.788,215.301c0,0,53.363-2.51,66.939-2.057c13.576,0.453,20.231,3.436,21.587,11.948c1.356,8.512-6.88,13.85-13.441,14.753
				c-6.562,0.904-72.991,1.293-72.991,1.293"/>
			<g>
				<g>
					<path style="fill:#FFFFFF;stroke:#263238;stroke-linecap:round;stroke-linejoin:round;stroke-miterlimit:10;" d="
						M121.455,318.392c0,0-8.259-28.69-23.474-34.341c0,0-3.043-19.58,3.478-20.658c6.52-1.077,24.778-13.139,19.996-28.191
						c-4.782-15.052-19.127,7.552-28.69,8.422c-9.563,0.869-19.996,13.499-19.561,24.354c0.435,10.856-9.998,31.287-7.39,43.023
						c2.608,11.737,18.692,32.602,19.996,43.47"/>
					<path style="fill:#FFFFFF;stroke:#263238;stroke-linecap:round;stroke-linejoin:round;stroke-miterlimit:10;" d="
						M101.446,239.206c0,0,11.449,2.079,17.676-5.182c6.227-7.262-0.943-7.732-0.943-7.732L101.446,239.206z"/>
				</g>
				<path style="fill:none;stroke:#263238;stroke-linecap:round;stroke-linejoin:round;stroke-miterlimit:10;" d="M80.997,255.411
					c2.082,0.137,4.126,0.807,5.884,1.93"/>
				<path style="fill:none;stroke:#263238;stroke-linecap:round;stroke-linejoin:round;stroke-miterlimit:10;" d="M80.651,259.57
					c2.069,0.191,4.079,0.987,5.719,2.264"/>
			</g>
			<path style="fill:none;stroke:#263238;stroke-linecap:round;stroke-linejoin:round;stroke-miterlimit:10;" d="M111.555,298.004
				c0,0,49.027-2.53,61.906-1.795"/>
			<path style="fill:none;stroke:#263238;stroke-linecap:round;stroke-linejoin:round;stroke-miterlimit:10;" d="M161.532,292.472
				c0,0,12.331-0.96,20.015,0"/>
			
				<line style="fill:none;stroke:#263238;stroke-linecap:round;stroke-linejoin:round;stroke-miterlimit:10;" x1="192.767" y1="296.075" x2="212.725" y2="296.075"/>
			
				<path style="fill:none;stroke:#263238;stroke-linecap:round;stroke-linejoin:round;stroke-miterlimit:10;stroke-dasharray:4,4;" d="
				M204.836,186.486c0,0,87.631-7.823,122.841-3.356c0,0,9.499,17.469,7.437,107.018c0,0-56.995,7.856-119.283,8.869"/>
		</g>
	</g>
</g>
<g id="Card">
	<g>
		<g style="opacity:0.1;">
			<path d="M442.056,310.388c-2.489-10.588-6.139-14.569-9.793-17.629c0,0-0.085-6.021-4.776-9.422
				c-1.189-1.064-2.573-2.045-4.033-2.984c-4.404-3.301-9.257-7.038-9.258-7.039c-2.28-6.6-5.367-14.59-8.702-22.451l0.167,1.789
				c-3.417-8.348-6.769-16.664-7.712-19.421c-0.006-0.018-0.013-0.039-0.019-0.057c0.974,2.657,2.009,5.222,3.105,7.597
				l-12.529-44.251c-0.298-1.782-0.601-3.534-0.917-5.22c-0.593-4.977-2.233-14.424-6.162-15.085
				c-0.144-0.029-0.289-0.045-0.438-0.044c0,0-4.625-2.007-4.625,6.211c-5.512,1.836-7.642,5.952-8.176,10.891
				c-0.261,1.419-0.324,2.978-0.093,4.696c0.095,1.809,0.31,3.66,0.582,5.501l-17.662-23.252l-1.723-2.268l-21.876-28.802
				l-29.433-38.743c-4.605-6.056-13.246-7.242-19.302-2.637l-36.485,27.73l-14.256,10.824c-10.934,5.691-8.079,16.932-5.049,20.92
				l63.667,83.812c-0.626-0.069-0.987-0.048-0.987-0.048c0-0.001-1.821-4.295-6.321-3.61c-0.9,0.029-1.8,0.312-2.682,0.889
				c-0.725,0.368-1.31,0.926-1.784,1.628c-0.457,0.544-0.905,1.172-1.34,1.915c-2.297,3.925-0.177,13.513,3.135,25.229
				c0.21,0.757,0.418,1.485,0.619,2.17c0.01,0.035,0.022,0.075,0.032,0.11c0.278,0.964,0.561,1.938,0.85,2.925
				c3.24,11.244,9.303,33.312,10.42,44.128c0.08,1.048,0.13,2.07,0.154,3.071c0.073,12.459-5.46,33.326-3.083,41.938
				c0.313,1.132,0.628,2.218,0.954,3.283c1.767,5.761,3.351,11.209,6.129,16.625c3.381,6.593,7.411,12.926,11.177,19.315
				c6.922,11.745,14.086,23.349,21.484,34.8c3.403,5.267,7.396,10.062,11.257,15.023c1.764,2.267,5.63,5.682,6.302,8.592
				c0,0,34.227,2.83,53.391-9.343l-1.805-27.236l12.847-73.856c3.67-5.563,14.96-16.448,17.268-19.891
				c1.162-1.71,2.304-3.404,3.412-5.071c8.455-7.885,12.688-14.04,14.542-21.111C442.528,312.525,442.396,311.717,442.056,310.388z
				 M322.19,324.84c-0.002-0.005-0.005-0.014-0.007-0.019c0.003,0.008,0.007,0.016,0.01,0.024
				C322.192,324.844,322.19,324.842,322.19,324.84z M323.557,326.525l-0.165-0.327c1.575,0.764,5.371,2.325,10.983,3.202
				C330.403,328.938,325.894,328.303,323.557,326.525z M337.976,329.831c-0.001,0-0.003,0-0.004,0
				c0.598,0.051,1.212,0.092,1.84,0.125C339.259,329.96,338.65,329.923,337.976,329.831z M323.177,325.77l-2.295-4.563
				c-3.206-9.181-10.434-30.819-10.464-30.908c-0.001-0.002-0.001-0.004-0.002-0.006c-0.005-0.024-1.887-8.926-5.641-18.25
				c3.342,1.169,7.187,0.697,10.217-1.605l17.496-13.291c1.807,1.09,3.661,2.068,5.473,2.931l16.384,12.814l-12.997,53.431
				L323.177,325.77z M389.524,202.707c0-0.001,0-0.001,0-0.002c1.352,6.388,3.509,15.565,6.352,24.457
				C393.731,220.753,391.069,212.063,389.524,202.707z"/>
			<path d="M315.248,459.453l0.106,0.473C315.355,459.926,315.318,459.754,315.248,459.453z"/>
		</g>
		<g>
			<g>
				<path style="fill:#FFFFFF;" d="M376.018,204.672c1.039-0.665,15.661-8.641,22.973,15.287
					c7.311,23.928,15.952,64.652,15.952,64.652l-17.436,3.415c0,0-16.157-8.599-30.637-30.135c0,0-20.3-5.261-29.138-17.763
					c-8.033-11.362,16.683-53.068,16.683-53.068L376.018,204.672z"/>
				<path style="fill:none;stroke:#263238;stroke-linecap:round;stroke-linejoin:round;stroke-miterlimit:10;" d="M369.728,234.453
					c4.323,6.481,12.504,20.11,23.543,24.404"/>
				<path style="fill:none;stroke:#263238;stroke-linecap:round;stroke-linejoin:round;stroke-miterlimit:10;" d="M357.507,241.424
					c2.04,0.809,7.047,3.682,9.363,3.792c0,0,10.188,20.174,27.015,26.72"/>
				<path style="fill:none;stroke:#263238;stroke-linecap:round;stroke-linejoin:round;stroke-miterlimit:10;" d="M348.159,248.849
					c6.256,5.232,13.698,8.805,18.711,9.042c0,0,10.188,20.173,27.015,26.72"/>
			</g>
			<g>
				<path style="fill:#263238;" d="M385.567,221.174l-55.299,42.007c-4.801,3.647-11.649,2.712-15.296-2.089l-76.807-101.109
					c-3.647-4.801-2.712-11.649,2.089-15.296l55.299-42.007c4.801-3.647,11.649-2.712,15.296,2.089l76.807,101.109
					C391.304,210.679,390.368,217.527,385.567,221.174z"/>
				<path style="fill:#92E3A9;" d="M383.969,218.997l-50.741,38.554c-6.068,4.605-14.697,3.431-19.302-2.637l-73.348-96.561
					c-1.224-1.615-2.044-3.419-2.46-5.286c-1.173-5.097,0.656-10.635,5.097-14.004l14.256-10.824l36.485-27.73
					c6.056-4.605,14.698-3.419,19.302,2.637l29.433,38.743l21.876,28.802l22.04,29.016
					C391.211,205.763,390.025,214.405,383.969,218.997z"/>
				<path style="opacity:0.1;" d="M342.69,141.89l-85.22-13.65l36.485-27.73c6.056-4.605,14.698-3.419,19.302,2.637L342.69,141.89z"
					/>
				<path style="opacity:0.1;" d="M383.969,218.997l-50.741,38.554c-6.068,4.605-14.697,3.431-19.302-2.637l-73.348-96.561
					c-1.224-1.615-2.044-3.419-2.46-5.286l128.171,19.893l20.317,26.748C391.211,205.763,390.025,214.405,383.969,218.997z"/>
				<path style="fill:#FFFFFF;stroke:#263238;stroke-linecap:round;stroke-linejoin:round;stroke-miterlimit:10;" d="
					M316.984,131.081l-8.965,6.81c-1.792,1.361-4.349,1.012-5.71-0.78l-10.852-14.286c-1.362-1.792-1.012-4.349,0.78-5.71
					l8.965-6.81c1.792-1.362,4.349-1.012,5.71,0.78l10.852,14.286C319.125,127.163,318.776,129.72,316.984,131.081z"/>
				
					<line style="fill:#FFFFFF;stroke:#263238;stroke-linecap:round;stroke-linejoin:round;stroke-miterlimit:10;" x1="296.914" y1="113.562" x2="312.381" y2="134.578"/>
				
					<line style="fill:#FFFFFF;stroke:#263238;stroke-linecap:round;stroke-linejoin:round;stroke-miterlimit:10;" x1="296.914" y1="130.008" x2="312.381" y2="118.284"/>
				<polygon style="fill:#263238;" points="326.87,251.256 324.233,253.199 292.025,210.797 294.637,208.816 				"/>
				<polygon style="fill:#263238;" points="331.336,247.951 328.699,249.906 296.453,207.441 299.052,205.461 				"/>
				<polygon style="fill:#263238;" points="335.802,244.658 333.165,246.601 300.869,204.085 303.48,202.105 				"/>
				<polygon style="fill:#263238;" points="340.268,241.353 337.632,243.295 305.764,201.335 308.363,199.355 				"/>
				<polygon style="fill:#263238;" points="345.087,237.795 342.451,239.738 310.533,197.714 313.144,195.734 				"/>
				<polygon style="fill:#263238;" points="345.087,188.349 342.451,190.292 310.533,148.268 313.144,146.288 				"/>
				
					<rect x="315.939" y="101.007" transform="matrix(0.7963 -0.6049 0.6049 0.7963 -41.1958 228.3858)" style="fill:#263238;" width="5.128" height="148.704"/>
				<path style="fill:none;stroke:#263238;stroke-linecap:round;stroke-linejoin:round;stroke-miterlimit:10;" d="M383.969,218.997
					l-50.741,38.554c-6.068,4.605-14.697,3.431-19.302-2.637l-73.348-96.561c-1.224-1.615-2.044-3.419-2.46-5.286
					c-1.173-5.097,0.656-10.635,5.097-14.004l14.256-10.824l36.485-27.73c6.056-4.605,14.698-3.419,19.302,2.637l29.433,38.743
					l21.876,28.802l22.04,29.016C391.211,205.763,390.025,214.405,383.969,218.997z"/>
			</g>
			<path style="fill:#FFFFFF;" d="M342.872,469.032c0,0,59.059,21.015,76.927-24.747c0,0-27.951-33.976-12.691-61.776
				c9.605-17.497,36.154-56.129,36.154-56.129s11.087-10.529,14.542-21.111c0,0-1.899-11.785-10.264-19.766
				c0,0-0.085-6.021-4.776-9.422c-4.691-3.401-13.29-10.022-13.29-10.022s-14.142-33.925-16.247-40.084
				c-2.105-6.16-6.312-17.729-8.426-30.523c-2.114-12.795-4.058-26.579-8.536-26.536c0,0-4.625-2.007-4.625,6.211
				c0,0-9.694,4.991-8.27,15.577c1.424,10.586,2.751,16.045,2.373,22.004c-0.378,5.96,1.528,26.612,6.311,33.089
				c0,0,1.598,29.003,3.99,36.556c0.073,0.231,0.147,0.442,0.221,0.631c2.514,6.384-22.667,31.051-36.295,37.653
				c0,0-1.424,2.665-6.716,1.938c-5.292-0.727-14.244-1.07-15.787-4.991c-1.543-3.921-11.773-34.546-11.773-34.546
				s-8.29-39.294-24.848-39.291c0,0-2.519-6.006-9.003-2.721c-6.484,3.285-2.239,21.161,0.63,30.941
				c2.869,9.781,10.139,35.493,11.32,47.324c1.182,11.831-5.521,35.524-2.947,44.847c2.573,9.323,5.312,15.615,13.355,30.875
				C322.244,410.274,340.045,455.729,342.872,469.032z"/>
			<path style="fill:none;stroke:#263238;stroke-linecap:round;stroke-linejoin:round;stroke-miterlimit:10;" d="M342.872,469.032
				c0,0-12.64-47.587-31.225-78.348c-18.585-30.761-7.69-41.656-7.69-67.29s-20.865-69.213-15.239-78.826
				c5.626-9.613,13.316-1.923,16.521,7.049c3.204,8.972-1.282,14.099-10.254,14.74"/>
			<path style="fill:none;stroke:#263238;stroke-linecap:round;stroke-linejoin:round;stroke-miterlimit:10;" d="M300.845,243.747
				c0,0,10.784-0.652,17.418,16.598c6.634,17.25,17.249,61.037,28.307,74.306"/>
			<path style="fill:none;stroke:#263238;stroke-linecap:round;stroke-linejoin:round;stroke-miterlimit:10;" d="M337.842,318.495
				c0.062,0.138,15.445,8.717,39.329,1.198"/>
			<path style="fill:none;stroke:#263238;stroke-linecap:round;stroke-linejoin:round;stroke-miterlimit:10;" d="M302.89,294.376
				c2.355-2.954,6.378-4.479,10.1-3.829"/>
			<path style="fill:none;stroke:#263238;stroke-linecap:round;stroke-linejoin:round;stroke-miterlimit:10;" d="M304.944,299.808
				c2.025-2.502,5.574-3.656,8.683-2.825"/>
			<path style="fill:none;stroke:#263238;stroke-linecap:round;stroke-linejoin:round;stroke-miterlimit:10;" d="M391.638,175.125
				c-15.701,5.229-4.018,28.937-5.897,37.581c-1.879,8.644,3.007,25.218,6.765,34.199c0,10.523,3.758,36.078,3.758,36.078
				c-2.321,8.123-21.68,32.089-40.491,39.591"/>
			<path style="fill:none;stroke:#263238;stroke-linecap:round;stroke-linejoin:round;stroke-miterlimit:10;" d="M403.158,187.061
				c0,0-1.165-18.147-6.894-18.147c-5.73,0-5.385,12.229-2.993,21.303C395.662,199.29,404.903,197.949,403.158,187.061z"/>
			<path style="fill:none;stroke:#263238;stroke-linecap:round;stroke-linejoin:round;stroke-miterlimit:10;" d="M403.158,187.061
				c0,0,4.882,28.534,13.153,46.454"/>
			<path style="fill:none;stroke:#263238;stroke-linecap:round;stroke-linejoin:round;stroke-miterlimit:10;" d="M426.057,300.327
				c3.997-6.475,5.772-12.606,7.255-20.406c-0.376-4.888-5.984-20.855-12.541-36.316"/>
			<path style="fill:none;stroke:#263238;stroke-linecap:round;stroke-linejoin:round;stroke-miterlimit:10;" d="M429.984,267.557
				c6.485,4.883,17.78,8.629,16.471,17.054c-1.228,7.901-4.286,16.219-8.7,23.884"/>
			<path style="fill:none;stroke:#263238;stroke-linecap:round;stroke-linejoin:round;stroke-miterlimit:10;" d="M421.238,446.387
				c0,0-22.607-31.392-18.08-53.07c3.33-15.949,24.746-43.835,40.104-66.938c8.456-7.885,12.688-14.04,14.542-21.111
				c-2.716-13.35-7.108-17.242-11.348-20.657"/>
			<path style="fill:none;stroke:#263238;stroke-linecap:round;stroke-linejoin:round;stroke-miterlimit:10;" d="M427.272,272.738
				c-5.017-1.439-10.624-0.675-15.073,2.053"/>
			<path style="fill:none;stroke:#263238;stroke-linecap:round;stroke-linejoin:round;stroke-miterlimit:10;" d="M426.031,278.112
				c-3.046-0.476-6.244,0.086-8.944,1.572"/>
		</g>
	</g>
</g>
</svg>
